# xmcd CD database file
#
# Track frame offsets:
#	150
#	12295
#	24908
#	36281
#	50538
#	59505
#	71120
#	83294
#	93397
#	106772
#	117325
#	127166
#	142350
#	158234
#	169265
#
# Disc length: 2442 seconds
#
# Revision: 0
# Processed by: cddbd v1.5.2PL0 Copyright (c) Steve Scherf et al.
# Submitted via: CDex 1.70beta2
#
DISCID=ce09880f
DTITLE=Various Artist - Lifetime of Country Romance: Always Wanting You [CD1]
DYEAR=2006
DGENRE=Country
TTITLE0=Jimmy Heap and the Melody Masters with Perk Williams/ Release Me
TTITLE1=Jimmy Wakely - One Has My Name (The Other Has My Heart)
TTITLE2=The Louvin Brothers - When I Stop Dreaming
TTITLE3=Slim Whitman - Indian Love Call
TTITLE4=Faron Young - Alone with You
TTITLE5=Wanda Jackson - In the Middle of a Heartache
TTITLE6=George Jones and Melba Montgomery - We Must Have Been Out of Our Minds
TTITLE7=Willie Nelson - Touch Me
TTITLE8=Sonny James - It's the Little Things
TTITLE9=Ferlin Husky - Just for You
TTITLE10=Linda Ronstadt - When Will I Be Loved
TTITLE11=Merle Haggard and the Strangers/ It's Not Love (But It's Not Bad)
TTITLE12=Crystal Gayle - I'll Get Over You
TTITLE13=Stoney Edwards - She's My Rock
TTITLE14=Kenny Rogers and Dottie West - All I Ever Need is You
EXTD=YEAR: 2006
EXTT0=
EXTT1=
EXTT2=
EXTT3=
EXTT4=
EXTT5=
EXTT6=
EXTT7=
EXTT8=
EXTT9=
EXTT10=
EXTT11=
EXTT12=
EXTT13=
EXTT14=
PLAYORDER=
